<svg width="14" height="14" viewBox="0 0 14 14" fill="none" xmlns="http://www.w3.org/2000/svg">
<path d="M2.33334 9.33366V7.94533C2.33334 6.70866 1.73251 6.12533 1.75001 4.66699C1.76751 3.08033 2.61918 1.16699 4.37501 1.16699C5.46584 1.16699 5.83334 2.21699 5.83334 3.20866C5.83334 5.02283 4.66668 6.51033 4.66668 8.27199V9.33366C4.66668 9.64308 4.54376 9.93982 4.32497 10.1586C4.10617 10.3774 3.80943 10.5003 3.50001 10.5003C3.19059 10.5003 2.89384 10.3774 2.67505 10.1586C2.45626 9.93982 2.33334 9.64308 2.33334 9.33366Z" stroke="black" stroke-width="1.16667" stroke-linecap="round" stroke-linejoin="round"/>
<path d="M11.6667 11.6667V10.2783C11.6667 9.04167 12.2675 8.45833 12.25 7C12.2325 5.41333 11.3808 3.5 9.62499 3.5C8.53416 3.5 8.16666 4.55 8.16666 5.54167C8.16666 7.35583 9.33332 8.84333 9.33332 10.605V11.6667C9.33332 11.9761 9.45624 12.2728 9.67503 12.4916C9.89382 12.7104 10.1906 12.8333 10.5 12.8333C10.8094 12.8333 11.1062 12.7104 11.3249 12.4916C11.5437 12.2728 11.6667 11.9761 11.6667 11.6667Z" stroke="black" stroke-width="1.16667" stroke-linecap="round" stroke-linejoin="round"/>
<path d="M9.33334 9.91699H11.6667" stroke="black" stroke-width="1.16667" stroke-linecap="round" stroke-linejoin="round"/>
<path d="M2.33334 7.58301H4.66668" stroke="black" stroke-width="1.16667" stroke-linecap="round" stroke-linejoin="round"/>
</svg>
